<?xml version="1.0" encoding="UTF-8"?>
<svg width="596px" height="210px" viewBox="0 0 596 210" version="1.1" xmlns="http://www.w3.org/2000/svg" xmlns:xlink="http://www.w3.org/1999/xlink">
    <!-- Generator: Sketch 41.2 (35397) - http://www.bohemiancoding.com/sketch -->
    <title>vgcst</title>
    <desc>Created with Sketch.</desc>
    <defs></defs>
    <g id="Page-1" stroke="none" stroke-width="1" fill="none" fill-rule="evenodd">
        <g id="Artboard" transform="translate(0.000000, -145.000000)" fill="#000000">
            <path d="M112.332,181.241 L72.812,181.241 L46.63,257.564 L18.225,181.241 L-22.53,181.241 L27.858,304 L65.649,304 L112.332,181.241 Z M117.754875,310.916 C121.212875,332.899 143.689875,354.635 179.010875,354.635 C224.952875,354.635 244.712875,324.007 244.712875,288.686 L244.712875,181.241 L208.897875,181.241 L208.897875,194.332 C205.439875,187.91 194.818875,179.018 174.811875,179.018 C141.219875,179.018 117.754875,206.682 117.754875,239.039 C117.754875,273.125 142.207875,298.813 174.811875,298.813 C192.595875,298.813 203.216875,291.65 207.662875,284.981 L207.662875,290.662 C207.662875,312.892 196.053875,322.031 177.281875,322.031 C163.202875,322.031 153.322875,313.386 150.852875,301.53 L117.754875,310.916 Z M181.727875,266.209 C166.660875,266.209 155.298875,255.835 155.298875,239.039 C155.298875,222.243 167.648875,211.869 181.727875,211.869 C195.806875,211.869 207.909875,222.243 207.909875,239.039 C207.909875,255.835 197.041875,266.209 181.727875,266.209 Z M331.64575,212.116 C346.21875,212.116 353.62875,221.008 356.34575,230.394 L389.93775,220.267 C384.50375,198.284 364.74375,177.536 330.90475,177.536 C294.84275,177.536 266.19075,204.459 266.19075,242.744 C266.19075,280.782 295.58375,307.705 332.13975,307.705 C364.99075,307.705 385.24475,286.463 390.67875,264.974 L357.58075,254.847 C354.86375,263.986 346.71275,273.125 332.13975,273.125 C316.57875,273.125 303.48775,262.257 303.48775,242.744 C303.48775,222.984 316.08475,212.116 331.64575,212.116 Z M402.276624,269.173 C403.264624,282.758 415.614624,307.705 454.146624,307.705 C486.997624,307.705 503.052624,287.204 503.052624,266.209 C503.052624,248.178 490.702624,232.864 465.261624,227.677 L448.959624,224.466 C443.525624,223.478 439.326624,220.514 439.326624,215.327 C439.326624,208.905 445.501624,204.706 452.664624,204.706 C464.026624,204.706 469.213624,211.622 470.201624,219.773 L501.323624,214.092 C500.088624,199.766 487.738624,177.536 452.170624,177.536 C424.753624,177.536 404.993624,195.814 404.993624,218.291 C404.993624,235.581 415.367624,250.401 441.549624,256.082 L455.628624,259.293 C464.767624,261.269 467.731624,264.974 467.731624,269.42 C467.731624,274.854 463.038624,280.041 453.405624,280.041 C440.561624,280.041 434.633624,271.89 434.139624,263.492 L402.276624,269.173 Z M571.213499,145.426 L537.621499,145.426 L537.621499,161.234 C537.621499,172.596 531.446499,181.241 518.602499,181.241 L512.427499,181.241 L512.427499,214.092 L534.163499,214.092 L534.163499,266.703 C534.163499,291.156 549.724499,306.223 575.165499,306.223 C587.021499,306.223 593.196499,303.506 594.678499,302.765 L594.678499,271.643 C592.455499,272.137 588.750499,272.878 584.798499,272.878 C576.647499,272.878 571.213499,270.161 571.213499,260.034 L571.213499,214.092 L595.172499,214.092 L595.172499,181.241 L571.213499,181.241 L571.213499,145.426 Z" id="vgcst"></path>
        </g>
    </g>
</svg>